<svg fill="#000000" xmlns="http://www.w3.org/2000/svg"  viewBox="0 0 50 50" width="30px" height="30px"><path d="M 25 2 C 12.311335 2 2 12.311335 2 25 C 2 37.688665 12.311335 48 25 48 C 37.688665 48 48 37.688665 48 25 C 48 12.311335 37.688665 2 25 2 z M 25 4 C 36.607335 4 46 13.392665 46 25 C 46 36.607335 36.607335 46 25 46 C 13.392665 46 4 36.607335 4 25 C 4 13.392665 13.392665 4 25 4 z M 25 6 C 14.513273 6 6 14.513273 6 25 C 6 35.486727 14.513273 44 25 44 C 35.486727 44 44 35.486727 44 25 C 44 14.513273 35.486727 6 25 6 z M 25 8 C 28.972457 8 32.611711 9.3659473 35.501953 11.638672 C 34.996253 12.258468 34.699219 13.053218 34.699219 13.900391 C 34.699219 15.500391 35.599609 16.9 36.599609 18.5 C 37.399609 19.8 38.199219 21.500391 38.199219 23.900391 C 38.199219 25.600391 37.699219 27.700781 36.699219 30.300781 L 34.699219 36.900391 L 27.599609 15.699219 C 28.799609 15.599219 29.900391 15.5 29.900391 15.5 C 30.900391 15.4 30.800781 13.900391 29.800781 13.900391 L 29.699219 13.900391 C 29.699219 13.900391 26.500391 14.199219 24.400391 14.199219 C 22.500391 14.199219 19.199219 13.900391 19.199219 13.900391 L 19.099609 13.900391 C 18.099609 13.900391 18 15.5 19 15.5 C 19 15.5 19.999609 15.599219 21.099609 15.699219 L 24.199219 24.099609 L 19.900391 37 L 12.699219 15.599609 C 13.899219 15.499609 15 15.400391 15 15.400391 C 16 15.300391 15.900391 13.800781 14.900391 13.800781 L 14.800781 13.800781 C 14.800781 13.800781 13.489398 13.908495 12.044922 13.996094 C 15.160169 10.329869 19.798156 8 25 8 z M 37.087891 13.041016 C 38.448711 14.416493 39.563287 16.029037 40.392578 17.804688 C 40.371407 18.936367 40.18331 20.06754 39.900391 21.199219 C 39.500391 19.799219 39.000391 18.599609 38.400391 17.599609 L 38.199219 17.199219 C 37.399219 15.899219 36.800781 14.9 36.800781 14 C 36.800781 13.657445 36.90014 13.319256 37.087891 13.041016 z M 23.599609 16.099609 L 24.599609 16.099609 C 24.999609 16.199609 25.300781 16.199219 25.800781 16.199219 L 25.900391 16.400391 L 33 37.599609 L 33.697266 39.595703 C 33.315814 39.823057 32.925515 40.03486 32.525391 40.232422 L 27.199219 26 L 26.5 24.099609 L 26.300781 23.400391 L 23.599609 16.099609 z M 10.466797 16.199219 L 10.900391 16.199219 L 11 16.400391 L 18.199219 37.800781 L 18.800781 39.599609 L 18.457031 40.697266 C 18.182132 40.58291 17.919668 40.446492 17.652344 40.318359 L 9.5175781 17.994141 C 9.7979121 17.37391 10.116921 16.776828 10.466797 16.199219 z M 41.585938 21.294922 C 41.850288 22.488424 42 23.72552 42 25 C 42 30.25918 39.623202 34.947175 35.886719 38.0625 L 40.599609 24.400391 C 41.036946 23.287576 41.352417 22.261425 41.585938 21.294922 z M 8.3671875 21.472656 L 14.580078 38.423828 C 10.579353 35.316928 8 30.471959 8 25 C 8 23.789693 8.1281354 22.610588 8.3671875 21.472656 z M 25 26.599609 L 30.341797 41.134766 C 28.661425 41.688806 26.868914 42 25 42 C 23.258628 42 21.58037 41.735639 20 41.251953 L 25 26.599609 z"/></svg>